# Blender v2.90.0 OBJ File: ''
# www.blender.org
mtllib Door_Wall.mtl
o Plane
v -2.720000 0.000000 0.000000
v 2.720000 0.000000 0.000000
v -2.720000 3.518011 -0.000000
v 2.720000 3.518011 -0.000000
v 0.180000 0.000000 0.000000
v 0.180000 3.518011 -0.000000
v -0.185800 3.518011 -0.000000
v -0.185800 0.000000 0.000000
v -2.720000 0.810000 0.000000
v 2.720000 0.810000 0.000000
v 0.180000 0.810000 0.000000
v -0.185800 0.810000 0.000000
v -2.720000 0.810000 -0.027549
v -2.720000 0.000000 -0.027549
v 0.180000 0.000000 -0.027549
v 2.720000 0.000000 -0.027549
v 2.720000 0.810000 -0.027549
v 2.720000 3.518011 -0.027549
v -0.185800 3.518011 -0.027549
v -2.720000 3.518011 -0.027549
v 0.180000 3.518011 -0.027549
v 0.180000 0.810000 -0.027549
v -0.185800 0.000000 -0.027549
v -0.185800 0.810000 -0.027549
vt 0.590000 0.405000
vt 1.000000 0.405000
vt 1.000000 1.000000
vt 0.590000 1.000000
vt 0.407100 0.405000
vt 0.407100 1.000000
vt 0.000000 0.405000
vt 0.000000 1.000000
vt 0.000000 0.000000
vt 0.407100 0.000000
vt 0.590000 0.405000
vt 0.590000 1.000000
vt 1.000000 1.000000
vt 1.000000 0.405000
vt 0.590000 0.000000
vt 1.000000 0.000000
vt 0.407100 0.405000
vt 0.407100 1.000000
vt 0.000000 0.405000
vt 0.000000 1.000000
vt 0.000000 0.000000
vt 0.407100 0.000000
vt 0.590000 0.000000
vt 1.000000 0.000000
vn 0.0000 0.0000 1.0000
vn 0.0000 -0.0000 -1.0000
vn 0.0000 1.0000 0.0000
vn -1.0000 0.0000 0.0000
vn 1.0000 0.0000 0.0000
vn 0.0000 -1.0000 0.0000
usemtl None
s off
f 11/1/1 10/2/1 4/3/1 6/4/1
f 12/5/1 11/1/1 6/4/1 7/6/1
f 9/7/1 12/5/1 7/6/1 3/8/1
f 1/9/1 8/10/1 12/5/1 9/7/1
f 22/11/2 21/12/2 18/13/2 17/14/2
f 5/15/1 2/16/1 10/2/1 11/1/1
f 24/17/2 19/18/2 21/12/2 22/11/2
f 13/19/2 20/20/2 19/18/2 24/17/2
f 14/21/2 13/19/2 24/17/2 23/22/2
f 15/23/2 22/11/2 17/14/2 16/24/2
f 7/6/3 19/18/3 20/20/3 3/8/3
f 3/8/4 20/20/4 13/19/4 9/7/4
f 9/7/4 13/19/4 14/21/4 1/9/4
f 6/4/3 21/12/3 19/18/3 7/6/3
f 2/16/5 16/24/5 17/14/5 10/2/5
f 5/15/6 15/23/6 16/24/6 2/16/6
f 1/9/6 14/21/6 23/22/6 8/10/6
f 12/5/6 24/17/6 22/11/6 11/1/6
f 4/3/3 18/13/3 21/12/3 6/4/3
f 11/1/4 22/11/4 15/23/4 5/15/4
f 10/2/5 17/14/5 18/13/5 4/3/5
f 8/10/5 23/22/5 24/17/5 12/5/5
