# Blender v2.90.1 OBJ File: 'slot-machine.blend'
# www.blender.org
mtllib slot-machine-roller.mtl
o Cylinder
v 0.047963 0.000000 0.119907
v -0.047963 -0.000000 0.119907
v 0.047963 -0.023393 0.117603
v -0.047963 -0.023393 0.117603
v 0.047963 -0.045887 0.110780
v -0.047963 -0.045887 0.110780
v 0.047963 -0.066617 0.099699
v -0.047963 -0.066617 0.099699
v 0.047963 -0.084787 0.084787
v -0.047963 -0.084787 0.084787
v 0.047963 -0.099699 0.066617
v -0.047963 -0.099699 0.066617
v 0.047963 -0.110780 0.045887
v -0.047963 -0.110780 0.045887
v 0.047963 -0.117603 0.023393
v -0.047963 -0.117603 0.023393
v 0.047963 -0.119907 0.000000
v -0.047963 -0.119907 0.000000
v 0.047963 -0.117603 -0.023393
v -0.047963 -0.117603 -0.023393
v 0.047963 -0.110780 -0.045886
v -0.047963 -0.110780 -0.045886
v 0.047963 -0.099699 -0.066617
v -0.047963 -0.099699 -0.066617
v 0.047963 -0.084787 -0.084787
v -0.047963 -0.084787 -0.084787
v 0.047963 -0.066617 -0.099699
v -0.047963 -0.066617 -0.099699
v 0.047963 -0.045886 -0.110780
v -0.047963 -0.045886 -0.110780
v 0.047963 -0.023393 -0.117603
v -0.047963 -0.023393 -0.117603
v 0.047963 0.000000 -0.119907
v -0.047963 0.000000 -0.119907
v 0.047963 0.023393 -0.117603
v -0.047963 0.023393 -0.117603
v 0.047963 0.045887 -0.110780
v -0.047963 0.045887 -0.110780
v 0.047963 0.066617 -0.099699
v -0.047963 0.066617 -0.099699
v 0.047963 0.084787 -0.084787
v -0.047963 0.084787 -0.084787
v 0.047963 0.099699 -0.066617
v -0.047963 0.099699 -0.066617
v 0.047963 0.110780 -0.045886
v -0.047963 0.110780 -0.045886
v 0.047963 0.117603 -0.023393
v -0.047963 0.117603 -0.023393
v 0.047963 0.119907 0.000000
v -0.047963 0.119907 0.000000
v 0.047963 0.117603 0.023393
v -0.047963 0.117603 0.023393
v 0.047963 0.110780 0.045887
v -0.047963 0.110780 0.045887
v 0.047963 0.099699 0.066617
v -0.047963 0.099699 0.066617
v 0.047963 0.084787 0.084787
v -0.047963 0.084787 0.084787
v 0.047963 0.066617 0.099699
v -0.047963 0.066617 0.099699
v 0.047963 0.045886 0.110780
v -0.047963 0.045886 0.110780
v 0.047963 0.023393 0.117603
v -0.047963 0.023393 0.117603
vt 0.746260 -0.002669
vt 1.001501 -0.002669
vt 1.001501 0.122290
vt 0.746260 0.122290
vt 1.001501 0.247250
vt 0.746260 0.247250
vt 1.001501 0.372209
vt 0.746260 0.372209
vt 1.001501 0.497169
vt 0.746260 0.497169
vt 1.001501 0.622129
vt 0.746260 0.622129
vt 1.001501 0.747089
vt 0.746260 0.747088
vt 1.001501 0.872048
vt 0.746260 0.872048
vt 1.001501 0.997008
vt 0.746260 0.997008
vt 0.508578 -0.001088
vt 0.741635 -0.001088
vt 0.741635 0.123539
vt 0.508578 0.123539
vt 0.741635 0.248165
vt 0.508578 0.248165
vt 0.741635 0.372791
vt 0.508578 0.372791
vt 0.741635 0.497418
vt 0.508578 0.497418
vt 0.741635 0.622044
vt 0.508578 0.622044
vt 0.741635 0.746671
vt 0.508578 0.746671
vt 0.741635 0.871297
vt 0.508578 0.871297
vt 0.741635 0.995924
vt 0.508578 0.995924
vt 0.240707 -0.000190
vt 0.504651 -0.000190
vt 0.504651 0.124275
vt 0.240707 0.124275
vt 0.504651 0.248738
vt 0.240707 0.248738
vt 0.504651 0.373202
vt 0.240707 0.373202
vt 0.504651 0.497666
vt 0.240707 0.497666
vt 0.504651 0.622131
vt 0.240707 0.622131
vt 0.504651 0.746596
vt 0.240707 0.746596
vt 0.504651 0.871059
vt 0.240707 0.871059
vt 0.504651 0.995524
vt 0.240707 0.995524
vt 0.000402 -0.000787
vt 0.233459 -0.000787
vt 0.233459 0.123839
vt 0.000402 0.123839
vt 0.233459 0.248466
vt 0.000402 0.248466
vt 0.233459 0.373092
vt 0.000402 0.373092
vt 0.233459 0.497718
vt 0.000402 0.497718
vt 0.233459 0.622344
vt 0.000402 0.622344
vt 0.233459 0.746971
vt 0.000402 0.746971
vt 0.233459 0.871598
vt 0.000402 0.871598
vt 0.233459 0.996225
vt 0.000402 0.996225
vn 0.0000 0.0000 1.0000
vn 0.0000 -0.1951 0.9808
vn 0.0000 -0.3827 0.9239
vn 0.0000 -0.5556 0.8314
vn 0.0000 -0.7071 0.7071
vn 0.0000 -0.8314 0.5556
vn 0.0000 -0.9239 0.3827
vn 0.0000 -0.9808 0.1951
vn 0.0000 -1.0000 0.0000
vn 0.0000 -0.9808 -0.1951
vn 0.0000 -0.9239 -0.3827
vn 0.0000 -0.8314 -0.5556
vn 0.0000 -0.7071 -0.7071
vn 0.0000 -0.5556 -0.8314
vn 0.0000 -0.3827 -0.9239
vn 0.0000 -0.1951 -0.9808
vn 0.0000 0.0000 -1.0000
vn 0.0000 0.1951 -0.9808
vn 0.0000 0.3827 -0.9239
vn 0.0000 0.5556 -0.8314
vn 0.0000 0.7071 -0.7071
vn 0.0000 0.8314 -0.5556
vn 0.0000 0.9239 -0.3827
vn 0.0000 0.9808 -0.1951
vn 0.0000 1.0000 0.0000
vn 0.0000 0.9808 0.1951
vn 0.0000 0.9239 0.3827
vn 0.0000 0.8314 0.5556
vn 0.0000 0.7071 0.7071
vn 0.0000 0.5556 0.8314
vn 0.0000 0.3827 0.9239
vn 0.0000 0.1951 0.9808
usemtl Material.001
s 1
f 1/1/1 2/2/1 4/3/2 3/4/2
f 3/4/2 4/3/2 6/5/3 5/6/3
f 5/6/3 6/5/3 8/7/4 7/8/4
f 7/8/4 8/7/4 10/9/5 9/10/5
f 9/10/5 10/9/5 12/11/6 11/12/6
f 11/12/6 12/11/6 14/13/7 13/14/7
f 13/14/7 14/13/7 16/15/8 15/16/8
f 15/16/8 16/15/8 18/17/9 17/18/9
f 17/19/9 18/20/9 20/21/10 19/22/10
f 19/22/10 20/21/10 22/23/11 21/24/11
f 21/24/11 22/23/11 24/25/12 23/26/12
f 23/26/12 24/25/12 26/27/13 25/28/13
f 25/28/13 26/27/13 28/29/14 27/30/14
f 27/30/14 28/29/14 30/31/15 29/32/15
f 29/32/15 30/31/15 32/33/16 31/34/16
f 31/34/16 32/33/16 34/35/17 33/36/17
f 33/37/17 34/38/17 36/39/18 35/40/18
f 35/40/18 36/39/18 38/41/19 37/42/19
f 37/42/19 38/41/19 40/43/20 39/44/20
f 39/44/20 40/43/20 42/45/21 41/46/21
f 41/46/21 42/45/21 44/47/22 43/48/22
f 43/48/22 44/47/22 46/49/23 45/50/23
f 45/50/23 46/49/23 48/51/24 47/52/24
f 47/52/24 48/51/24 50/53/25 49/54/25
f 49/55/25 50/56/25 52/57/26 51/58/26
f 51/58/26 52/57/26 54/59/27 53/60/27
f 53/60/27 54/59/27 56/61/28 55/62/28
f 55/62/28 56/61/28 58/63/29 57/64/29
f 57/64/29 58/63/29 60/65/30 59/66/30
f 59/66/30 60/65/30 62/67/31 61/68/31
f 61/68/31 62/67/31 64/69/32 63/70/32
f 63/70/32 64/69/32 2/71/1 1/72/1
